<?xml version="1.0" encoding="UTF-8" standalone="no"?>
<!DOCTYPE svg PUBLIC "-//W3C//DTD SVG 20010904//EN"
              "http://www.w3.org/TR/2001/REC-SVG-20010904/DTD/svg10.dtd">

<svg xmlns="http://www.w3.org/2000/svg"
     width="20.0278in" height="24.125in"
     viewBox="0 0 1442 1737">
  <path id="Gediyak"
        class="kurumba-path"
        fill="none" stroke="black" stroke-width="1"
        d="M 657.00,1679.91
           C 651.00,1673.73 651.00,1662.27 657.73,1657.91
             665.36,1651.91 680.69,1654.30 682.69,1669.03
             684.14,1681.40 667.00,1688.64 657.00,1679.91 Z
           M 54.00,878.91
           C 48.00,872.73 48.00,861.27 54.73,856.91
             62.36,850.91 77.69,853.30 79.69,868.03
             81.14,880.40 64.00,887.64 54.00,878.91 Z
           M 60.00,817.91
           C 54.00,811.73 54.00,800.27 60.73,795.91
             68.36,789.91 83.69,792.30 85.69,807.03
             87.14,819.40 70.00,826.64 60.00,817.91 Z
           M 1010.00,194.91
           C 1004.00,188.73 1004.00,177.27 1010.73,172.91
             1018.36,166.91 1033.69,169.30 1035.69,184.03
             1037.14,196.40 1020.00,203.64 1010.00,194.91 Z
           M 960.00,200.91
           C 954.00,194.73 954.00,183.27 960.73,178.91
             968.36,172.91 983.69,175.30 985.69,190.03
             987.14,202.40 970.00,209.64 960.00,200.91 Z
           M 365.14,211.58
           C 722.14,95.08 778.14,333.58 1129.14,206.58M 736.09,76.45
           C 806.24,71.58 751.68,55.99 778.96,37.48
             863.73,-10.25 901.73,50.15 962.14,88.13
             1687.05,528.42 1377.21,1118.73 1207.67,1358.35
             1146.29,1448.94 900.75,1703.18 773.11,1621.36
             775.06,1658.37 677.63,1728.51 640.60,1707.08
             71.59,1399.26 -351.28,699.87 494.45,115.41
             652.30,-4.40 660.09,78.39 736.09,76.45 Z" />
</svg>
